<?xml version="1.0" encoding="utf-8"?><svg xmlns="http://www.w3.org/2000/svg" xmlns:xlink="http://www.w3.org/1999/xlink" width="1366" height="625" preserveAspectRatio="xMidYMid" viewBox="0 0 1366 625" style="z-index:1;margin-right:-2px;display:block;background-repeat-y:initial;background-repeat-x:initial;background-color:rgb(255, 255, 255);animation-play-state:paused" ><g transform="translate(683,312.5) scale(1,1) translate(-683,-312.5)" style="transform:matrix(1, 0, 0, 1, 0, 0);animation-play-state:paused" ><linearGradient id="lg-0.778398392425389" x1="0" x2="1" y1="0" y2="0" style="animation-play-state:paused" ><stop stop-color="#ff00ff" offset="0" style="animation-play-state:paused" ></stop>

  
<stop stop-color="#00ffff" offset="1" style="animation-play-state:paused" ></stop></linearGradient>
<path d="M 0 0 L 0 539.806 Q 136.6 497.768 273.2 483.137 T 546.4 465.609 T 819.6 391.927 T 1092.8 281.732 T 1366 215.019 L 1366 0 Z" fill="url(#lg-0.778398392425389)" opacity="0.4" style="opacity:0.4;animation-play-state:paused" ></path>
<path d="M 0 0 L 0 568.808 Q 136.6 571.978 273.2 525.456 T 546.4 411.649 T 819.6 397.901 T 1092.8 322.753 T 1366 293.277 L 1366 0 Z" fill="url(#lg-0.778398392425389)" opacity="0.4" style="opacity:0.4;animation-play-state:paused" ></path>
<path d="M 0 0 L 0 587.575 Q 136.6 581.948 273.2 556.133 T 546.4 409.389 T 819.6 409.112 T 1092.8 302.916 T 1366 315.152 L 1366 0 Z" fill="url(#lg-0.778398392425389)" opacity="0.4" style="opacity:0.4;animation-play-state:paused" ></path>
<path d="M 0 0 L 0 612.376 Q 136.6 494.348 273.2 465.177 T 546.4 449.171 T 819.6 387.027 T 1092.8 343.067 T 1366 284.745 L 1366 0 Z" fill="url(#lg-0.778398392425389)" opacity="0.4" style="opacity:0.4;animation-play-state:paused" ></path>
<path d="M 0 0 L 0 576.162 Q 136.6 561.807 273.2 526.526 T 546.4 498.671 T 819.6 387.958 T 1092.8 301.965 T 1366 261.262 L 1366 0 Z" fill="url(#lg-0.778398392425389)" opacity="0.4" style="opacity:0.4;animation-play-state:paused" ></path></g></svg>